
<svg width="30px" height="28px" viewBox="0 0 30 28" version="1.1" xmlns="http://www.w3.org/2000/svg" xmlns:xlink="http://www.w3.org/1999/xlink">
    <!-- Generator: Sketch 51.2 (57519) - http://www.bohemiancoding.com/sketch -->
    <desc>Created with Sketch.</desc>
    <defs></defs>
    <g id="Symbols" stroke="none" stroke-width="1" fill="none" fill-rule="evenodd">
        <g id="ico_ocultar" transform="translate(0.000000, -1.000000)" fill="#929090">
            <path d="M21.9440242,1 L14.8184569,28.2314675 L11.4606657,28.2314675 L12.2995461,24.9863843 C11.0590015,24.6686838 9.81089259,24.1278366 8.55597579,23.3638427 C7.29954614,22.5998487 6.24054463,21.8282905 5.37897126,21.0491679 C4.51588502,20.2700454 3.68759455,19.4236006 2.89334342,18.5075643 C2.09984871,17.5922844 1.55446293,16.9228442 1.25945537,16.4992436 C0.965204236,16.075643 0.742057489,15.7503782 0.590771558,15.5234493 L0,14.6157337 L0.590771558,13.7080182 C0.681543116,13.5567322 0.832829047,13.3298033 1.04387292,13.0272315 C1.25567322,12.7246596 1.62632375,12.2443268 2.15582451,11.586233 C2.68532526,10.9281392 3.24886536,10.2813918 3.84644478,9.64599092 C4.44402421,9.01059002 5.17776097,8.32980333 6.04765507,7.60363086 C6.91754917,6.8774584 7.79878971,6.24583964 8.69213313,5.70877458 C9.58396369,5.17170953 10.586233,4.72541604 11.6981846,4.3698941 C12.8108926,4.01437216 13.9107413,3.8366112 15,3.8366112 C15.9228442,3.8366112 16.8381241,3.96520424 17.7458396,4.22239032 L18.586233,1 L21.9440242,1 L21.9440242,1 L21.9440242,1 L21.9440242,1 Z M13.0257186,22.2405446 L13.8653555,19.0408472 C12.2465961,18.7685325 10.8963691,18.0007564 9.81467474,16.7375189 C8.73298033,15.4742814 8.19213313,14.01059 8.19213313,12.3464448 C8.19213313,11.0605144 8.54009077,9.86535552 9.23600605,8.76096823 C7.69288956,10.0771558 5.98335855,12.0287443 4.10741301,14.6157337 C7.28441755,18.881997 10.2579425,21.4236006 13.0257186,22.2405446 C13.0257186,22.2405446 10.2579425,21.4236006 13.0257186,22.2405446 L13.0257186,22.2405446 L13.0257186,22.2405446 Z M12.3676248,10.9394856 L9.93948563,13.3449319 C10.6807867,15.2208775 11.8456884,16.6656581 13.4341906,17.6792738 L14.5007564,16.612708 L15.0234493,14.6384266 C14.5688351,14.214826 14.1225416,13.6928896 13.6838124,13.0726172 C13.2450832,12.4523449 12.9130106,11.9379728 12.6860817,11.5295008 L12.3676248,10.9394856 L12.3676248,10.9394856 L12.3676248,10.9394856 L12.3676248,10.9394856 Z M30,14.6157337 L29.4099849,15.5234493 C29.3048411,15.7049924 29.1119516,15.9924357 28.8320726,16.3857791 C28.5514372,16.7791225 28.0718608,17.3804841 27.3903177,18.1898638 C26.7102874,18.9992436 25.9871407,19.774584 25.2231467,20.515885 C24.4591528,21.2571861 23.52118,22.0136157 22.4092284,22.785174 C21.2980333,23.5567322 20.1891074,24.1543116 19.0854766,24.5779123 L19.9470499,21.2874433 C20.279879,21.0605144 20.6164902,20.8033283 20.9568835,20.515885 C21.2980333,20.2284418 21.6459909,19.8956127 22.0007564,19.5173979 C22.3562784,19.1399395 22.6626324,18.806354 22.9198185,18.5189107 C23.1770045,18.2314675 23.4871407,17.8494705 23.8509834,17.3729198 C24.2133132,16.8963691 24.4667171,16.5673222 24.6104387,16.3857791 C24.7541604,16.204236 25.0037821,15.871407 25.3600605,15.387292 C25.714826,14.903177 25.9009077,14.6467474 25.9152799,14.6157337 C24.4485628,12.6944024 23.3888048,11.3706505 22.7390318,10.6444781 L23.6240545,7.33131619 C24.6369138,8.14826021 25.6316188,9.09757943 26.607413,10.1792738 C27.5832073,11.2609682 28.2450832,12.0438729 28.5930408,12.5279879 C28.9409985,13.0128593 29.2133132,13.4054463 29.4099849,13.7080182 L30,14.6157337 L30,14.6157337 Z" id="Fill-104"></path>
        </g>
    </g>
</svg>