
<svg width="30px" height="30px" viewBox="0 0 30 30" version="1.1" xmlns="http://www.w3.org/2000/svg" xmlns:xlink="http://www.w3.org/1999/xlink">
    <!-- Generator: Sketch 51.2 (57519) - http://www.bohemiancoding.com/sketch -->
    <desc>Created with Sketch.</desc>
    <defs></defs>
    <g id="Symbols" stroke="none" stroke-width="1" fill="none" fill-rule="evenodd">
        <g id="ico_usuario" fill="#929090">
            <path d="M30,26.425 L30,30 L0,30 L0,26.425 L10,20 L10,17.5 C9.38333333,17.5 8.81333333,16.8791667 8.28833333,15.6375 C7.7625,14.3958333 7.5,13.35 7.5,12.5 L7.5,7.5 C7.5,5.43416667 8.23333333,3.66666667 9.70083333,2.2 C11.1675,0.733333333 12.9333333,0 15,0 C17.0666667,0 18.8333333,0.733333333 20.3,2.2 C21.7666667,3.66666667 22.5,5.43416667 22.5,7.5 L22.5,12.5 C22.5,13.35 22.2383333,14.3958333 21.7125,15.6375 C21.1875,16.8791667 20.6175,17.5 20,17.5 L20,20 L30,26.425" id="Fill-14"></path>
        </g>
    </g>
</svg>