
<svg width="28px" height="30px" viewBox="0 0 28 30" version="1.1" xmlns="http://www.w3.org/2000/svg" xmlns:xlink="http://www.w3.org/1999/xlink">
    <!-- Generator: Sketch 51.2 (57519) - http://www.bohemiancoding.com/sketch -->
    <desc>Created with Sketch.</desc>
    <defs>
        <path d="M0,0 L2.72727273,0 L2.72727273,30 L0,30 L0,30 L0,0 L0,0 Z M27.2727273,13.6363636 L27.2727273,0 C26.5454545,1.47272727 25.6236364,2.52272727 24.5045455,3.15 C23.3863636,3.77727273 22.2281818,4.04545455 21.0272727,3.95454545 C19.8281818,3.86363636 18.5727273,3.63727273 17.2645455,3.27272727 C15.9545455,2.90909091 14.6863636,2.54545455 13.4590909,2.18181818 C12.2318182,1.81818182 11.0909091,1.59181818 10.0363636,1.5 C8.98181818,1.40909091 8.04545455,1.67727273 7.22818182,2.30454545 C6.40909091,2.93181818 5.81909091,3.98181818 5.45454545,5.45454545 L5.45454545,19.0909091 C6.54636364,18 7.70454545,17.2363636 8.93272727,16.8 C10.1590909,16.3636364 11.3190909,16.2045455 12.41,16.3227273 C13.5,16.4409091 14.61,16.65 15.7372727,16.95 C16.8636364,17.25 17.9463636,17.5227273 18.9818182,17.7681818 C20.0181818,18.0136364 21.0172727,18.1136364 21.9818182,18.0681818 C22.9463636,18.0227273 23.8818182,17.6409091 24.7909091,16.9227273 C25.7,16.2045455 26.5272727,15.1090909 27.2727273,13.6363636 L27.2727273,13.6363636 Z" id="path-1"></path>
    </defs>
    <g id="Symbols" stroke="none" stroke-width="1" fill="none" fill-rule="evenodd">
        <g id="ico_estatus" transform="translate(-1.000000, 0.000000)">
            <g id="hex" transform="translate(1.000000, 0.000000)">
                <mask id="mask-2" fill="white">
                    <use xlink:href="#path-1"></use>
                </mask>
                <use id="Mask" fill="#929090" xlink:href="#path-1"></use>
                <g mask="url(#mask-2)">
                    <g transform="translate(-1.000000, 0.000000)"></g>
                </g>
            </g>
        </g>
    </g>
</svg>