<svg height="22" viewBox="0 0 30 22" width="30" xmlns="http://www.w3.org/2000/svg"><path d="m30 14.7791225-.5900151.9077156c-.0907716.151286-.2420575.3782149-.4531014.6807867-.2125567.3033283-.5832073.7829047-1.1119516 1.4409985-.5302572.6580938-1.0930408 1.3048411-1.6913767 1.9402421-.5975794.6354009-1.3313162 1.3161876-2.2012103 2.04236-.8698941.7261725-1.7511346 1.3585477-2.6437216 1.8948563-.8918306.537065-1.8948563.9833585-3.0060514 1.3388805-1.1127081.3555219-2.2125568.5332829-3.3025719.5332829-1.0892587 0-2.1891074-.177761-3.3018154-.5332829-1.1119516-.355522-2.11422091-.8018155-3.0068079-1.3388805-.89258699-.5363086-1.77382753-1.1686838-2.64372163-1.8948563-.8698941-.7261724-1.60363086-1.4069591-2.20121029-2.04236-.59757942-.635401-1.16111952-1.2821483-1.69062027-1.9402421-.52950076-.6580938-.90015129-1.1376702-1.11195159-1.4409985-.21104387-.3025718-.3623298-.5295007-.45310136-.6807867l-.59077156-.9077156.59077156-.9077155c.09077156-.151286.24205749-.3782149.45310136-.6807867.2118003-.3025719.58245083-.7829047 1.11195159-1.4409985.52950075-.6580938 1.09304085-1.3048412 1.69062027-1.94024207.59757943-.63540091 1.33131619-1.3161876 2.20121029-2.04236006.8698941-.72617247 1.75113464-1.35779123 2.64372163-1.89485628s1.8948563-.98335855 3.0068079-1.33888049c1.112708-.35552193 2.2125567-.5332829 3.3018154-.5332829 1.0900151 0 2.1898638.17776097 3.3025719.5332829 1.1111951.35552194 2.1142208.80181544 3.0060514 1.33888049.892587.53706505 1.7738275 1.16868381 2.6437216 1.89485628.8698941.72617246 1.6036309 1.40695915 2.2012103 2.04236006.5983359.63540087 1.1611195 1.28214827 1.6913767 1.94024207.5287443.6580938.8993949 1.1384266 1.1119516 1.4409985.2110439.3025718.3623298.5295007.4531014.6807867zm-17.8366112 7.6815432c.9228442.3252647 1.8683812.4878971 2.8366112.4878971s1.9024206-.1512859 2.8025719-.4538578c.9001512-.3025719 1.660363-.6467474 2.2806354-1.0325265.6202723-.3857791 1.2670196-.9266263 1.940242-1.6225416.6732224-.6951588 1.1762481-1.2670197 1.5098336-1.7133131.3320726-.4462935.7708018-1.0627837 1.3154312-1.8494705.5453857-.7859305.9001513-1.2859305 1.0665658-1.4977308-.0143722-.0143721-.2307111-.2980332-.6459909-.8509833-.4167928-.5521937-.7344932-.96823-.9531014-1.2481089-.220121-.279879-.5491679-.6807867-.9878971-1.2027232-.4387292-.5219364-.8729198-1.0015128-1.3048412-1.4409985-.4311649-.43872917-.8736762-.84720119-1.3267776-1.22541601.7405446 1.11951588 1.1111952 2.35249621 1.1111952 3.69894101 0 1.8759455-.6656581 3.4795764-1.9962179 4.8108926-1.3320726 1.3313162-2.9357035 1.9969743-4.811649 1.9969743s-3.4795764-.6656581-4.8108926-1.9969743c-1.33131617-1.3313162-1.99697427-2.9349471-1.99697427-4.8108926 0-1.2859304.34795764-2.4810893 1.04387292-3.58547657-1.54311649 1.31618757-3.2526475 3.26777607-5.12859304 5.85476547.10590015.151286.41225416.5900152.91981846 1.3161876.50605143.7261725.92965204 1.3199698 1.27004538 1.7813919.34114978.4614221.85476551 1.047655 1.54311649 1.7586989.68910742.7110439 1.35098336 1.2783661 1.98562784 1.7019667.63540092.4236006 1.41527992.7980333 2.33736762 1.1232981 0 0-.9220877-.3252648 0 0zm.204236-11.3577913-2.42813917 2.4054463c.74130107 1.8759456 1.90620277 3.3207262 3.49470497 4.3343419l2.3827534-2.3827534c-.5597579-.3630862-1.1270802-.9077156-1.7019667-1.633888-.5748865-.7261725-1.0060514-1.3615734-1.2934947-1.9062027z" fill="#929090" fill-rule="evenodd" transform="translate(0 -4)"/></svg>