
<svg width="28px" height="30px" viewBox="0 0 28 30" version="1.1" xmlns="http://www.w3.org/2000/svg" xmlns:xlink="http://www.w3.org/1999/xlink">
    <!-- Generator: Sketch 51.2 (57519) - http://www.bohemiancoding.com/sketch -->
    <desc>Created with Sketch.</desc>
    <defs>
        <path d="M0,7.5 L0,3.75 C0,3.4 0.120833333,3.10416667 0.363333333,2.86166667 C0.604166667,2.62083333 0.9,2.5 1.25,2.5 L5,2.5 L5,0 L7.5,0 L7.5,2.5 L20,2.5 L20,0 L22.5,0 L22.5,2.5 L26.25,2.5 C26.6,2.5 26.8966667,2.62083333 27.1375,2.86166667 C27.3791667,3.10416667 27.5,3.4 27.5,3.75 L27.5,7.5 L0,7.5 L0,7.5 L0,7.5 L0,7.5 Z M27.5,10 L27.5,28.75 C27.5,29.0833333 27.3791667,29.375 27.1375,29.6241667 C26.8966667,29.875 26.6,30 26.25,30 L1.25,30 C0.9,30 0.604166667,29.875 0.363333333,29.6241667 C0.120833333,29.375 0,29.0833333 0,28.75 L0,10 L27.5,10 L27.5,10 L27.5,10 L27.5,10 Z M2.5,17.5 L5,17.5 L5,15 L2.5,15 L2.5,15 L2.5,17.5 L2.5,17.5 Z M2.5,22.5 L5,22.5 L5,20 L2.5,20 L2.5,20 L2.5,22.5 L2.5,22.5 Z M2.5,27.5 L5,27.5 L5,25 L2.5,25 L2.5,25 L2.5,27.5 L2.5,27.5 Z M7.5,17.5 L10,17.5 L10,15 L7.5,15 L7.5,15 L7.5,17.5 L7.5,17.5 Z M7.5,22.5 L10,22.5 L10,20 L7.5,20 L7.5,20 L7.5,22.5 L7.5,22.5 Z M7.5,27.5 L10,27.5 L10,25 L7.5,25 L7.5,25 L7.5,27.5 L7.5,27.5 Z M12.5,17.5 L15,17.5 L15,15 L12.5,15 L12.5,15 L12.5,17.5 L12.5,17.5 Z M12.5,22.5 L15,22.5 L15,20 L12.5,20 L12.5,20 L12.5,22.5 L12.5,22.5 Z M12.5,27.5 L15,27.5 L15,25 L12.5,25 L12.5,25 L12.5,27.5 L12.5,27.5 Z M17.5,17.5 L20,17.5 L20,15 L17.5,15 L17.5,15 L17.5,17.5 L17.5,17.5 Z M17.5,22.5 L20,22.5 L20,20 L17.5,20 L17.5,20 L17.5,22.5 L17.5,22.5 Z M17.5,27.5 L20,27.5 L20,25 L17.5,25 L17.5,25 L17.5,27.5 L17.5,27.5 Z M22.5,17.5 L25,17.5 L25,15 L22.5,15 L22.5,15 L22.5,17.5 L22.5,17.5 Z M22.5,22.5 L25,22.5 L25,20 L22.5,20 L22.5,20 L22.5,22.5 L22.5,22.5 Z M22.5,27.5 L25,27.5 L25,25 L22.5,25 L22.5,25 L22.5,27.5 L22.5,27.5 Z" id="path-1"></path>
    </defs>
    <g id="Symbols" stroke="none" stroke-width="1" fill="none" fill-rule="evenodd">
        <g id="ico_calendario" transform="translate(-1.000000, 0.000000)">
            <g id="hex" transform="translate(1.000000, 0.000000)">
                <mask id="mask-2" fill="white">
                    <use xlink:href="#path-1"></use>
                </mask>
                <use id="Mask" fill="#929090" xlink:href="#path-1"></use>
                <g mask="url(#mask-2)">
                    <g transform="translate(-1.000000, 0.000000)"></g>
                </g>
            </g>
        </g>
    </g>
</svg>