
<svg width="30px" height="30px" viewBox="0 0 30 30" version="1.1" xmlns="http://www.w3.org/2000/svg" xmlns:xlink="http://www.w3.org/1999/xlink">
    <!-- Generator: Sketch 51.2 (57519) - http://www.bohemiancoding.com/sketch -->
    <desc>Created with Sketch.</desc>
    <defs>
        <path d="M7.47483221,2.01342282 C9.77348993,0.67114094 12.2818792,0 15,0 C17.7189597,0 20.2265101,0.67114094 22.5260067,2.01342282 C24.8238255,3.3557047 26.6442953,5.1761745 27.9874161,7.47483221 C29.3288591,9.77432886 30,12.2818792 30,15 C30,17.7181208 29.3288591,20.2265101 27.9874161,22.5251678 C26.6442953,24.8238255 24.8238255,26.6442953 22.5260067,27.9865772 C20.2265101,29.3288591 17.7189597,30 15,30 C12.2818792,30 9.77348993,29.3288591 7.47483221,27.9865772 C5.17533557,26.6442953 3.35486577,24.8238255 2.01342282,22.5251678 C0.67114094,20.2265101 0,17.7181208 0,15 C0,12.2818792 0.67114094,9.77432886 2.01342282,7.47483221 C3.35486577,5.1761745 5.17533557,3.3557047 7.47483221,2.01342282 C7.47483221,2.01342282 5.17533557,3.3557047 7.47483221,2.01342282 L7.47483221,2.01342282 L7.47483221,2.01342282 Z M22.3624161,7.63842282 C20.3238255,5.59983221 17.8691275,4.58053691 15,4.58053691 C12.1308725,4.58053691 9.67701342,5.59983221 7.63842282,7.63842282 C5.59983221,9.67701342 4.58053691,12.1308725 4.58053691,15 C4.58053691,17.8691275 5.59983221,20.3229866 7.63842282,22.3615772 C9.67701342,24.4001678 12.1308725,25.4194631 15,25.4194631 C17.8691275,25.4194631 20.3238255,24.4001678 22.3624161,22.3615772 C24.4001678,20.3229866 25.4194631,17.8691275 25.4194631,15 C25.4194631,12.1308725 24.4001678,9.67701342 22.3624161,7.63842282 C22.3624161,7.63842282 24.4001678,9.67701342 22.3624161,7.63842282 L22.3624161,7.63842282 L22.3624161,7.63842282 Z M15,15 L20.033557,15 L20.033557,17.5167785 L12.4832215,17.5167785 L12.4832215,7.44966443 L15,7.44966443 L15,15 L15,15 Z" id="path-1"></path>
    </defs>
    <g id="Symbols" stroke="none" stroke-width="1" fill="none" fill-rule="evenodd">
        <g id="ico_reloj">
            <g id="hex">
                <mask id="mask-2" fill="white">
                    <use xlink:href="#path-1"></use>
                </mask>
                <use id="Mask" fill="#929090" xlink:href="#path-1"></use>
                <g mask="url(#mask-2)"></g>
            </g>
        </g>
    </g>
</svg>