<svg height="28" viewBox="0 0 30 28" width="30" xmlns="http://www.w3.org/2000/svg"><path d="m21.9440242 1-7.1255673 27.2314675h-3.3577912l.8388804-3.2450832c-1.2405446-.3177005-2.48865351-.8585477-3.74357031-1.6225416-1.25642965-.763994-2.31543116-1.5355522-3.17700453-2.3146748-.86308624-.7791225-1.69137671-1.6255673-2.48562784-2.5416036-.79349471-.9152799-1.33888049-1.5847201-1.63388805-2.0083207-.29425113-.4236006-.51739788-.7488654-.66868381-.9757943l-.59077156-.9077156.59077156-.9077155c.09077156-.151286.24205749-.3782149.45310136-.6807867.2118003-.3025719.58245083-.7829047 1.11195159-1.4409985.52950075-.6580938 1.09304085-1.3048412 1.69062027-1.94024208.59757943-.6354009 1.33131619-1.31618759 2.20121029-2.04236006.8698941-.72617246 1.75113464-1.35779122 2.64447806-1.89485628.89183056-.53706505 1.89409987-.98335854 3.00605147-1.33888048 1.112708-.35552194 2.2125567-.5332829 3.3018154-.5332829.9228442 0 1.8381241.12859304 2.7458396.38577912l.8403934-3.22239032zm-8.9183056 21.2405446.8396369-3.1996974c-1.6187594-.2723147-2.9689864-1.0400908-4.05068076-2.3033283-1.08169441-1.2632375-1.62254161-2.7269289-1.62254161-4.3910741 0-1.2859304.34795764-2.48108928 1.04387292-3.58547657-1.54311649 1.31618757-3.2526475 3.26777607-5.12859304 5.85476547 3.17700454 4.2662633 6.15052949 6.8078669 8.91830559 7.6248109 0 0-2.7677761-.816944 0 0zm-.6580938-11.301059-2.42813917 2.4054463c.74130107 1.8759456 1.90620277 3.3207262 3.49470497 4.3343419l1.0665658-1.0665658.5226929-1.9742814c-.4546142-.4236006-.9009077-.945537-1.3396369-1.5658094-.4387292-.6202723-.7708018-1.1346444-.9977307-1.5431164zm17.6323752 3.6762481-.5900151.9077156c-.1051438.1815431-.2980333.4689864-.5779123.8623298-.2806354.3933434-.7602118.994705-1.4417549 1.8040847-.6800303.8093798-1.403177 1.5847202-2.167171 2.3260212-.7639939.7413011-1.7019667 1.4977307-2.8139183 2.269289-1.1111951.7715582-2.220121 1.3691376-3.3237518 1.7927383l.8615733-3.290469c.3328291-.2269289.6694403-.484115 1.0098336-.7715583.3411498-.2874432.6891074-.6202723 1.0438729-.9984871.355522-.3774584.661876-.7110439.9190621-.9984872.257186-.2874432.5673222-.6694402.9311649-1.1459909.3623298-.4765507.6157337-.8055976.7594553-.9871407.1437217-.1815431.3933434-.5143721.7496218-.9984871.3547655-.484115.5408472-.7405446.5552194-.7715583-1.4667171-1.9213313-2.5264751-3.2450832-3.1762481-3.9712556l.8850227-3.31316191c1.0128593.81694402 2.0075643 1.76626324 2.9833585 2.84795761.9757943 1.0816944 1.6376702 1.8645991 1.9856278 2.3487141.3479577.4848714.6202724.8774584.8169441 1.1800303z" fill="#929090" fill-rule="evenodd" transform="translate(0 -1)"/></svg>