
<svg width="30px" height="25px" viewBox="0 0 30 25" version="1.1" xmlns="http://www.w3.org/2000/svg" xmlns:xlink="http://www.w3.org/1999/xlink">
    <!-- Generator: Sketch 51.2 (57519) - http://www.bohemiancoding.com/sketch -->
    <desc>Created with Sketch.</desc>
    <defs>
        <path d="M27.4472087,3.78181087 L21.2092413,3.78181087 L21.2092413,2.53417061 C21.2092413,1.1580469 20.0902014,0.0389485525 18.7140192,0.0389485525 L11.2284115,0.0389485525 C9.85228782,0.0389485525 8.73318947,1.15798842 8.73318947,2.53417061 L8.73318947,3.78175239 L2.49522205,3.78175239 C1.11903987,3.78181087 0,4.90085074 0,6.27697445 L0,22.4957716 C0,23.8718953 1.11903987,24.9909937 2.49522205,24.9909937 L27.4472672,24.9909937 C28.8233909,24.9909937 29.9424892,23.8719538 29.9424892,22.4957716 L29.9424892,6.27697445 C29.9424307,4.90085074 28.8233909,3.78181087 27.4472087,3.78181087 Z M9.98082974,2.53417061 C9.98082974,1.8464304 10.5406713,1.28658882 11.2284115,1.28658882 L18.7140192,1.28658882 C19.4017594,1.28658882 19.961601,1.8464304 19.961601,2.53417061 L19.961601,3.78175239 L9.98082974,3.78175239 L9.98082974,2.53417061 Z M28.6948489,22.4958301 C28.6948489,23.1835703 28.1350074,23.7434119 27.4472672,23.7434119 L2.49522205,23.7434119 C1.80748185,23.7434119 1.24764027,23.1835703 1.24764027,22.4958301 L1.24764027,13.4156125 C1.616131,13.6304729 2.03871695,13.7626406 2.49522205,13.7626406 L12.4760518,13.7626406 L12.4760518,15.6340425 C12.4760518,15.9788483 12.7550661,16.2578627 13.0998719,16.2578627 L16.8426758,16.2578627 C17.1874816,16.2578627 17.4664959,15.9788483 17.4664959,15.6340425 L17.4664959,13.7626406 L27.4473256,13.7626406 C27.9038307,13.7626406 28.3264752,13.6305313 28.6949074,13.4156125 L28.6949074,22.4958301 L28.6948489,22.4958301 Z M13.7236336,15.0102224 L13.7236336,12.5150003 L16.2188556,12.5150003 L16.2188556,15.0102224 L13.7236336,15.0102224 Z M28.6948489,11.2674186 C28.6948489,11.9551588 28.1350074,12.5150003 27.4472672,12.5150003 L17.4664374,12.5150003 L17.4664374,11.8911802 C17.4664374,11.5463744 17.1874231,11.2673601 16.8426173,11.2673601 L13.0998134,11.2673601 C12.7550076,11.2673601 12.4759933,11.5463744 12.4759933,11.8911802 L12.4759933,12.5150003 L2.49522205,12.5150003 C1.80748185,12.5150003 1.24764027,11.9551588 1.24764027,11.2674186 L1.24764027,6.27703293 C1.24764027,5.58929272 1.80748185,5.02945114 2.49522205,5.02945114 L27.4472672,5.02945114 C28.1350074,5.02945114 28.6948489,5.58929272 28.6948489,6.27703293 L28.6948489,11.2674186 Z" id="path-1"></path>
    </defs>
    <g id="Symbols" stroke="none" stroke-width="1" fill="none" fill-rule="evenodd">
        <g id="ico_comision" transform="translate(0.000000, -2.000000)">
            <g id="hex" transform="translate(0.000000, 2.000000)">
                <mask id="mask-2" fill="white">
                    <use xlink:href="#path-1"></use>
                </mask>
                <use id="Mask" fill="#4A90E2" fill-rule="nonzero" xlink:href="#path-1"></use>
            </g>
        </g>
    </g>
</svg>