
<svg width="24px" height="30px" viewBox="0 0 24 30" version="1.1" xmlns="http://www.w3.org/2000/svg" xmlns:xlink="http://www.w3.org/1999/xlink">
    <!-- Generator: Sketch 51.2 (57519) - http://www.bohemiancoding.com/sketch -->
    <desc>Created with Sketch.</desc>
    <defs></defs>
    <g id="Symbols" stroke="none" stroke-width="1" fill="none" fill-rule="evenodd">
        <g id="ico_notificacion" transform="translate(-3.000000, 0.000000)" fill="#4A90E2" fill-rule="nonzero">
            <g id="notification" transform="translate(3.000000, 0.000000)">
                <path d="M22.8445898,22.1514844 C22.2103125,21.5716406 21.8465039,20.7495117 21.8465039,19.895918 L21.8465039,14.0624414 C21.8465039,13.7388867 21.5841797,13.4765039 21.2605664,13.4765039 C20.9369531,13.4765039 20.6746289,13.7388867 20.6746289,14.0624414 L20.6746289,19.895918 C20.6746289,21.0777539 21.1773633,22.2151172 22.0539258,23.0164453 C22.3689844,23.3044336 22.5496289,23.7141797 22.5496289,24.1407422 C22.5496289,24.9806836 21.86625,25.6640625 21.0263086,25.6640625 L2.74488281,25.6640625 C1.90494141,25.6640625 1.2215625,24.9806836 1.2215625,24.1407422 C1.2215625,23.7142383 1.40220703,23.3044922 1.71726562,23.0164453 C2.59382812,22.2151172 3.0965625,21.0777539 3.0965625,19.895918 L3.0965625,13.1249414 C3.0965625,8.27865234 7.03933594,4.33587891 11.885625,4.33587891 C13.2185156,4.33587891 14.5313672,4.63898437 15.7203516,5.21548828 C15.3070898,5.87935547 15.0674414,6.66205078 15.0674414,7.49994141 C15.0674414,9.89080078 17.0125195,11.8358789 19.4033789,11.8358789 C21.7942383,11.8358789 23.7393164,9.89080078 23.7393164,7.49994141 C23.7393164,5.10908203 21.7942383,3.16400391 19.4033789,3.16400391 C18.2828906,3.16400391 17.2602539,3.59126953 16.4899219,4.29140625 C15.6165234,3.83583984 14.6795508,3.51369141 13.7119922,3.33375 C13.9278516,2.99683594 14.0535937,2.596875 14.0535937,2.16791016 C14.0535937,0.972539063 13.0810547,0 11.885625,0 C10.6901953,0 9.71765625,0.972539062 9.71765625,2.16791016 C9.71765625,2.59640625 9.84310547,2.99589844 10.0584961,3.33263672 C5.43568359,4.19308594 1.9246875,8.25644531 1.9246875,13.1249414 L1.9246875,19.895918 C1.9246875,20.7495117 1.5609375,21.5716406 0.926601562,22.1514844 C0.369316406,22.6608984 0.0496875,23.3859375 0.0496875,24.1406836 C0.0496875,25.6267969 1.25876953,26.8358789 2.74488281,26.8358789 L8.18167969,26.8358789 C8.46386719,28.6262695 10.0171875,29.9999414 11.885625,29.9999414 C13.7540625,29.9999414 15.3073828,28.6262695 15.5895703,26.8358789 L21.0263672,26.8358789 C22.5124805,26.8358789 23.7215625,25.6267969 23.7215625,24.1406836 C23.7215625,23.3859375 23.4019336,22.6608984 22.8445898,22.1514844 Z M19.4033203,4.33587891 C21.1480078,4.33587891 22.5673828,5.7553125 22.5673828,7.49994141 C22.5673828,9.24457031 21.1480078,10.6640039 19.4033203,10.6640039 C17.6586328,10.6640039 16.2392578,9.24457031 16.2392578,7.49994141 C16.2392578,5.7553125 17.6586328,4.33587891 19.4033203,4.33587891 Z M11.885625,1.17181641 C12.4348828,1.17181641 12.8817187,1.61865234 12.8817187,2.16785156 C12.8817187,2.71710938 12.4348828,3.16394531 11.885625,3.16394531 C11.3363672,3.16394531 10.8895312,2.71710938 10.8895312,2.16785156 C10.8895312,1.61865234 11.3363672,1.17181641 11.885625,1.17181641 Z M11.885625,28.8280664 C10.6656445,28.8280664 9.64160156,27.9759961 9.37546875,26.8358789 L14.3957813,26.8358789 C14.1296484,27.9759961 13.1056055,28.8280664 11.885625,28.8280664 Z" id="Shape"></path>
                <path d="M11.885625,5.97650391 C9.01037109,5.97650391 6.42644531,7.68673828 5.30285156,10.3336523 C5.17640625,10.6314844 5.31539062,10.9754883 5.61322266,11.1019336 C5.68792969,11.1336328 5.76556641,11.1486914 5.84191406,11.1486914 C6.06996094,11.1486914 6.28681641,11.0146875 6.3815625,10.7915625 C7.32105469,8.57841797 9.48152344,7.14837891 11.885625,7.14837891 C12.2092383,7.14837891 12.4715625,6.88599609 12.4715625,6.56244141 C12.4715625,6.23888672 12.2092383,5.97650391 11.885625,5.97650391 Z" id="Shape"></path>
            </g>
        </g>
    </g>
</svg>