
<svg width="30px" height="30px" viewBox="0 0 30 30" version="1.1" xmlns="http://www.w3.org/2000/svg" xmlns:xlink="http://www.w3.org/1999/xlink">
    <!-- Generator: Sketch 51.2 (57519) - http://www.bohemiancoding.com/sketch -->
    <desc>Created with Sketch.</desc>
    <defs></defs>
    <g id="Symbols" stroke="none" stroke-width="1" fill="none" fill-rule="evenodd">
        <g id="ico_asistencia" fill="#4A90E2" fill-rule="nonzero">
            <g id="business-and-finances">
                <path d="M19.21875,2.578125 C14.6955469,2.578125 11.015625,6.25804687 11.015625,10.78125 C11.015625,11.0470898 11.0288086,11.3098828 11.0536523,11.5692773 C10.3998633,11.1482227 9.62285156,10.9027734 8.7890625,10.9027734 C6.47578125,10.9027734 4.59375,12.7848047 4.59375,15.0980859 L4.59375,15.2576953 L4.59375,15.9669727 L4.59375,17.5000195 C4.59375,18.6870117 5.09003906,19.7595703 5.88503906,20.523457 L5.24941406,20.523457 C2.35488281,20.523457 0,22.8783398 0,25.7728711 L0,29.4140625 C0,29.7376758 0.262324219,30 0.5859375,30 L16.9921875,30 C17.3158008,30 17.578125,29.7376758 17.578125,29.4140625 L17.578125,25.7728711 C17.578125,22.8783398 15.2232422,20.523457 12.3287109,20.523457 L11.6930859,20.523457 C12.4880859,19.7595703 12.984375,18.6870117 12.984375,17.5000195 L12.984375,16.1064258 C14.4901172,17.8666406 16.7262305,18.984375 19.21875,18.984375 C23.7419531,18.984375 27.421875,15.3044531 27.421875,10.78125 C27.421875,6.25804687 23.7419531,2.578125 19.21875,2.578125 Z M5.765625,15.2576367 L5.765625,15.0980859 C5.765625,13.430918 7.12195313,12.0746484 8.7890625,12.0746484 C10.4033789,12.0746484 11.72625,13.346543 11.808457,14.9407617 L10.2806836,14.0432227 C10.0338867,13.8981445 9.71853516,13.9526953 9.53478516,14.1720703 C8.89095703,14.9403516 7.94677734,15.3809766 6.94441406,15.3809766 L5.765625,15.3809766 L5.765625,15.2576367 Z M11.7341602,24.8635547 C11.8305469,24.8635547 11.9271094,24.8398242 12.0148242,24.7919531 C12.2030273,24.6892969 12.3200977,24.4920117 12.3200977,24.2776172 L12.3200977,21.8299805 C12.3200977,21.7835742 12.3141211,21.7386328 12.3039258,21.6953906 L12.3287109,21.6953906 C14.5770703,21.6953906 16.40625,23.5245703 16.40625,25.7729297 L16.40625,28.828125 L1.171875,28.828125 L1.171875,25.7728711 C1.171875,23.5245117 3.00105469,21.695332 5.24941406,21.695332 L5.25802734,21.695332 L5.25802734,24.2776172 C5.25802734,24.4920117 5.37509766,24.6892383 5.56330078,24.7919531 C5.75144531,24.894668 5.98078125,24.8864063 6.16101563,24.7703906 L8.203125,23.456543 L8.203125,24.7287891 C8.203125,25.0524023 8.46544922,25.3147266 8.7890625,25.3147266 C9.11267578,25.3147266 9.375,25.0524023 9.375,24.7287891 L9.375,23.456543 L11.4171094,24.7703906 C11.5134375,24.8323828 11.6236523,24.8635547 11.7341602,24.8635547 Z M6.42990234,23.2038867 L6.42990234,21.695332 L11.1643359,21.695332 C11.1541406,21.7386328 11.1481641,21.7835156 11.1481641,21.8299219 L11.1481641,23.2038867 L9.10605469,21.8900391 C8.91292969,21.7658203 8.66513672,21.7658203 8.47201172,21.8900391 L6.42990234,23.2038867 Z M11.8125,17.5000195 C11.8125,19.1671875 10.4561719,20.523457 8.7890625,20.523457 C7.12195313,20.523457 5.765625,19.1671875 5.765625,17.5000195 L5.765625,16.5529102 L6.94447266,16.5529102 C8.12619141,16.5529102 9.24785156,16.0981055 10.0906641,15.2906836 L11.8125,16.3023047 L11.8125,17.5000195 Z M19.21875,17.8125 C15.3417188,17.8125 12.1875,14.6582812 12.1875,10.78125 C12.1875,6.90421875 15.3417188,3.75 19.21875,3.75 C23.0957813,3.75 26.25,6.90421875 26.25,10.78125 C26.25,14.6582812 23.0957813,17.8125 19.21875,17.8125 Z" id="Shape"></path>
                <path d="M9.20332031,26.4509766 C9.09433594,26.3419922 8.94316406,26.2792969 8.7890625,26.2792969 C8.63496094,26.2792969 8.48378906,26.3419922 8.37480469,26.4509766 C8.26582031,26.5599609 8.203125,26.7111328 8.203125,26.8652344 C8.203125,27.0193359 8.26582031,27.1705078 8.37480469,27.2794922 C8.48378906,27.3884766 8.63496094,27.4511719 8.7890625,27.4511719 C8.94316406,27.4511719 9.09433594,27.3884766 9.20332031,27.2794922 C9.31230469,27.1705078 9.375,27.0193359 9.375,26.8652344 C9.375,26.7111328 9.31230469,26.5599609 9.20332031,26.4509766 Z" id="Shape"></path>
                <path d="M14.6191406,25.6640625 L11.9824219,25.6640625 C11.6588086,25.6640625 11.3964844,25.9263867 11.3964844,26.25 C11.3964844,26.5736133 11.6588086,26.8359375 11.9824219,26.8359375 L14.6191406,26.8359375 C14.9427539,26.8359375 15.2050781,26.5736133 15.2050781,26.25 C15.2050781,25.9263867 14.9427539,25.6640625 14.6191406,25.6640625 Z" id="Shape"></path>
                <path d="M19.21875,0 C16.6495312,0 14.1611133,0.918867188 12.2118164,2.58726563 C10.284082,4.23720703 8.99525391,6.51720703 8.58287109,9.00726563 C8.53001953,9.32648437 8.7459375,9.62818359 9.06521484,9.68109375 C9.384375,9.73359375 9.68607422,9.51796875 9.73904297,9.19875 C10.5092578,4.54763672 14.4960938,1.171875 19.21875,1.171875 C24.5173828,1.171875 28.828125,5.48261719 28.828125,10.78125 C28.828125,16.0798828 24.5173828,20.390625 19.21875,20.390625 C18.8951367,20.390625 18.6328125,20.6529492 18.6328125,20.9765625 C18.6328125,21.3001758 18.8951367,21.5625 19.21875,21.5625 C25.1635547,21.5625 30,16.7260547 30,10.78125 C30,4.83644531 25.1635547,0 19.21875,0 Z" id="Shape"></path>
                <path d="M17.409668,20.2207617 C17.4077344,20.2203516 17.4038086,20.2195898 17.4014062,20.2191797 C17.0844727,20.1582422 16.7785547,20.3653125 16.7165625,20.6821875 C16.6543945,20.9997656 16.8622266,21.3077344 17.1798633,21.3698437 C17.2186523,21.3775781 17.2572656,21.3813281 17.2954102,21.3813281 C17.5689844,21.3813281 17.8136133,21.1887305 17.8693359,20.9101758 C17.932793,20.5928906 17.7270117,20.2842187 17.409668,20.2207617 Z" id="Shape"></path>
                <path d="M22.3772461,7.63236328 C22.1484375,7.40349609 21.7774219,7.40355469 21.5485547,7.63236328 L19.2283594,9.95255859 L18.0069727,8.73117187 C17.7781641,8.50236328 17.4071484,8.50236328 17.1782813,8.73117187 C16.9494141,8.95998047 16.9494727,9.33099609 17.1782813,9.55986328 L18.8141016,11.1955664 C18.9285352,11.31 19.0784766,11.3671875 19.228418,11.3671875 C19.3783594,11.3671875 19.5283594,11.31 19.6427344,11.1955664 L22.3772461,8.46105469 C22.6060547,8.23224609 22.6060547,7.86123047 22.3772461,7.63236328 Z" id="Shape"></path>
                <path d="M19.21875,4.45804687 C18.8951367,4.45804687 18.6328125,4.72037109 18.6328125,5.04398437 L18.6328125,5.4590625 C18.6328125,5.78267578 18.8951367,6.045 19.21875,6.045 C19.5423633,6.045 19.8046875,5.78267578 19.8046875,5.4590625 L19.8046875,5.04398437 C19.8046875,4.72037109 19.5423633,4.45804687 19.21875,4.45804687 Z" id="Shape"></path>
                <path d="M19.21875,15.5175 C18.8951367,15.5175 18.6328125,15.7798242 18.6328125,16.1034375 L18.6328125,16.5185156 C18.6328125,16.8421289 18.8951367,17.1044531 19.21875,17.1044531 C19.5423633,17.1044531 19.8046875,16.8421289 19.8046875,16.5185156 L19.8046875,16.1034375 C19.8046875,15.7798242 19.5423633,15.5175 19.21875,15.5175 Z" id="Shape"></path>
                <path d="M24.9560156,10.1953125 L24.5409375,10.1953125 C24.2173242,10.1953125 23.955,10.4576367 23.955,10.78125 C23.955,11.1048633 24.2173242,11.3671875 24.5409375,11.3671875 L24.9560156,11.3671875 C25.2796289,11.3671875 25.5419531,11.1048633 25.5419531,10.78125 C25.5419531,10.4576367 25.2796289,10.1953125 24.9560156,10.1953125 Z" id="Shape"></path>
                <path d="M13.8965625,10.1953125 L13.4814844,10.1953125 C13.1578711,10.1953125 12.8955469,10.4576367 12.8955469,10.78125 C12.8955469,11.1048633 13.1578711,11.3671875 13.4814844,11.3671875 L13.8965625,11.3671875 C14.2201758,11.3671875 14.4825,11.1048633 14.4825,10.78125 C14.4825,10.4576367 14.2201758,10.1953125 13.8965625,10.1953125 Z" id="Shape"></path>
            </g>
        </g>
    </g>
</svg>