
<svg width="30px" height="29px" viewBox="0 0 30 29" version="1.1" xmlns="http://www.w3.org/2000/svg" xmlns:xlink="http://www.w3.org/1999/xlink">
    <!-- Generator: Sketch 51.2 (57519) - http://www.bohemiancoding.com/sketch -->
    <desc>Created with Sketch.</desc>
    <defs>
        <path d="M29.9018295,17.002973 C29.6806029,15.4702911 28.4765489,14.266237 26.9438669,14.0450104 L26.9438669,13.1379002 C26.9438669,10.6351143 25.0413306,8.59735967 22.7027027,8.59735967 C20.4314345,8.59735967 18.529896,10.5732432 18.4615385,13.002183 L18.4904782,13.002183 L18.4615385,13.0071726 L18.4615385,22.8401871 C18.4615385,25.9836383 16.1114345,28.5363202 13.2224532,28.5363202 C10.3334719,28.5363202 7.98336798,25.9801455 7.98336798,22.8401871 L7.98336798,21.9884615 C8.70686071,21.9884615 9.48024948,21.4640541 9.48024948,19.9926195 L9.48024948,18.7377339 C12.682578,17.9189397 14.968815,15.1691684 14.968815,12.0516632 L14.968815,11.0113306 L13.970894,11.0113306 L13.9499376,4.51735967 C13.9427027,3.31530146 13.0801247,2.28893971 11.8972141,2.07494802 C11.6420582,1.29326403 10.8014969,0.866403326 10.0197505,1.12162162 C9.23806653,1.37677755 8.81120582,2.21733888 9.06642412,2.99908524 C9.32158004,3.78076923 10.1621414,4.20762994 10.9438877,3.95241164 C11.3624532,3.81575884 11.6990644,3.50085239 11.8632848,3.09232848 C12.5025156,3.27419958 12.945343,3.85573805 12.9505198,4.52035343 L12.972973,11.0113306 L11.975052,11.0113306 L11.975052,12.0661331 C11.9352599,13.8017048 10.771684,15.3099376 9.10303534,15.7888773 C8.2102079,16.0721622 7.25158004,16.0721622 6.3587526,15.7888773 C4.69203742,15.308316 3.53108108,13.8003326 3.49272349,12.0661331 L3.49272349,11.0113306 L1.995842,11.0113306 L1.995842,4.52484407 C1.99871102,3.85043659 2.45226611,3.26116424 3.1035343,3.085842 C3.40721414,3.85891892 4.28008316,4.2393763 5.05316008,3.93569647 C5.82623701,3.63201663 6.20669439,2.75908524 5.90301455,1.98607069 C5.59933472,1.21305613 4.72640333,0.832536383 3.95338877,1.13621622 C3.53451143,1.30081081 3.21130977,1.64428274 3.07259875,2.07245322 C1.87677755,2.27677755 1.00122661,3.31168399 0.997920998,4.52484407 L0.997920998,11.0113306 L0,11.0113306 L0,12.0491684 C0,15.1701663 2.28773389,17.9209356 5.48856549,18.7377339 L5.48856549,19.9926195 C5.48856549,21.4640541 6.26195426,21.9884615 6.98544699,21.9884615 L6.98544699,22.8401871 C6.98544699,26.5324948 9.7831185,29.5342412 13.2224532,29.5342412 C16.6617879,29.5342412 19.4594595,26.5290021 19.4594595,22.8401871 L19.4594595,13.0311227 C19.5093555,11.1375676 20.9653222,9.59677755 22.7027027,9.59677755 C24.4909771,9.59677755 25.9459459,11.1854678 25.9459459,13.1393971 L25.9459459,14.0450104 C24.036736,14.3205613 22.7124324,16.091684 22.9879834,18.000894 C23.2635343,19.910104 25.034657,21.2344075 26.9438669,20.9588565 C28.8530769,20.6833056 30.1773805,18.9121206 29.9018295,17.002973 Z M10.4781705,3.02796258 C10.2026195,3.02796258 9.97920998,2.80455301 9.97920998,2.52900208 C9.97920998,2.25345114 10.2026195,2.03004158 10.4781705,2.03004158 C10.7537214,2.03004158 10.977131,2.25345114 10.977131,2.52900208 C10.977131,2.80455301 10.7537214,3.02796258 10.4781705,3.02796258 Z M4.49064449,2.03004158 C4.76619543,2.03004158 4.98960499,2.25345114 4.98960499,2.52900208 C4.98960499,2.80455301 4.76619543,3.02796258 4.49064449,3.02796258 C4.21509356,3.02796258 3.99168399,2.80455301 3.99168399,2.52900208 C3.99168399,2.25345114 4.21509356,2.03004158 4.49064449,2.03004158 Z M0.997920998,12.0491684 L0.997920998,12.0092516 L2.49480249,12.0092516 L2.49480249,12.0661331 C2.53222453,14.2348025 3.97503119,16.127422 6.05638254,16.7379002 C7.14704782,17.0832432 8.31773389,17.0832432 9.40839917,16.7379002 C11.4907484,16.1282328 12.9348649,14.2355509 12.972973,12.0661331 L12.972973,12.0092516 L13.970894,12.0092516 L13.970894,12.0491684 C13.970894,14.8248857 11.8313514,17.2672973 8.88149688,17.8580665 C8.18881497,17.9967775 7.47929314,18.03158 6.77638254,17.9613514 C6.5449896,17.9388981 6.31496881,17.9040956 6.08731809,17.8570686 C3.13746362,17.2672973 0.997920998,14.8248857 0.997920998,12.0491684 Z M6.98544699,20.9905405 C6.53638254,20.9905405 6.48648649,20.2919958 6.48648649,19.9926195 L6.48648649,18.9338254 C6.52640333,18.938815 6.56731809,18.9408108 6.60773389,18.9448025 C6.65762994,18.9502911 6.70752599,18.9542827 6.75742204,18.9587734 C6.99343035,18.9797297 7.23143451,18.9937006 7.47143451,18.9941996 L7.49638254,18.9941996 C7.73588358,18.9941996 7.97338877,18.9797297 8.20790021,18.9587734 C8.25779626,18.9542827 8.31068607,18.9502911 8.362079,18.9448025 C8.40149688,18.9403119 8.44241164,18.938815 8.48182952,18.9338254 L8.48182952,19.9926195 C8.48182952,20.2919958 8.43193347,20.9905405 7.98286902,20.9905405 L6.98544699,20.9905405 Z M26.4449064,19.9926195 C25.0670894,19.9926195 23.950104,18.8756341 23.950104,17.497817 C23.950104,16.12 25.0670894,15.0030146 26.4449064,15.0030146 C27.8227235,15.0030146 28.9397089,16.12 28.9397089,17.497817 C28.9380873,18.8750104 27.8220374,19.9909979 26.4449064,19.9926195 Z M26.4449064,17.9967775 C26.7204574,17.9967775 26.9438669,17.773368 26.9438669,17.497817 C26.9438669,17.2222661 26.7204574,16.9988565 26.4449064,16.9988565 C26.1693555,16.9988565 25.9459459,17.2222661 25.9459459,17.497817 C25.9459459,17.773368 26.1693555,17.9967775 26.4449064,17.9967775 Z" id="path-1"></path>
    </defs>
    <g id="Symbols" stroke="none" stroke-width="1" fill="none" fill-rule="evenodd">
        <g id="ico_medico" transform="translate(0.000000, -1.000000)">
            <mask id="mask-2" fill="white">
                <use xlink:href="#path-1"></use>
            </mask>
            <use id="Mask" fill="#4A90E2" fill-rule="nonzero" xlink:href="#path-1"></use>
        </g>
    </g>
</svg>