
<svg width="30px" height="26px" viewBox="0 0 30 26" version="1.1" xmlns="http://www.w3.org/2000/svg" xmlns:xlink="http://www.w3.org/1999/xlink">
    <!-- Generator: Sketch 51.2 (57519) - http://www.bohemiancoding.com/sketch -->
    <desc>Created with Sketch.</desc>
    <defs></defs>
    <g id="Symbols" stroke="none" stroke-width="1" fill="none" fill-rule="evenodd">
        <g id="ico_vacaciones" transform="translate(0.000000, -2.000000)" fill="#4A90E2" fill-rule="nonzero">
            <g id="hex" transform="translate(0.000000, 2.000000)">
                <g id="sun-umbrella">
                    <path d="M4.9259646,2.14269912 C3.3870177,2.14269912 2.13487611,3.39478319 2.13487611,4.93378761 C2.13487611,6.47284956 3.38696018,7.72487611 4.9259646,7.72487611 C6.46502655,7.72487611 7.71711062,6.47279204 7.71711062,4.93378761 C7.71711062,3.39478319 6.46502655,2.14269912 4.9259646,2.14269912 Z M4.92602212,6.85911062 C3.86439381,6.85911062 3.00064159,5.99547345 3.00064159,4.93378761 C3.00064159,3.87210177 3.86433628,3.0084646 4.92602212,3.0084646 C5.98770796,3.0084646 6.85140265,3.87215929 6.85140265,4.93378761 C6.85140265,5.99541593 5.98765044,6.85911062 4.92602212,6.85911062 Z" id="Shape"></path>
                    <path d="M4.92602212,0.00776548673 C4.68690265,0.00776548673 4.49316814,0.201557522 4.49316814,0.440619469 L4.49316814,1.31138938 C4.49316814,1.55045133 4.68690265,1.74424336 4.92602212,1.74424336 C5.16514159,1.74424336 5.35887611,1.55045133 5.35887611,1.31138938 L5.35887611,0.440619469 C5.35887611,0.201557522 5.16514159,0.00776548673 4.92602212,0.00776548673 Z" id="Shape"></path>
                    <path d="M8.40933186,1.4505354 C8.24021681,1.2815354 7.96618142,1.28147788 7.79706637,1.4505354 L7.18134956,2.06625221 C7.01229204,2.23530973 7.01229204,2.50940265 7.18134956,2.67840265 C7.26590708,2.76296018 7.37663717,2.80518142 7.4874823,2.80518142 C7.59821239,2.80518142 7.70905752,2.76296018 7.79361504,2.67846018 L8.40933186,2.06274336 C8.57838938,1.89368584 8.57838938,1.61959292 8.40933186,1.4505354 Z" id="Shape"></path>
                    <path d="M9.41919027,4.50093363 L8.54847788,4.50093363 C8.30935841,4.50093363 8.11562389,4.69472566 8.11562389,4.93378761 C8.11562389,5.17284956 8.30935841,5.36664159 8.54847788,5.36664159 L9.41919027,5.36664159 C9.65830973,5.36664159 9.85204425,5.17284956 9.85204425,4.93378761 C9.85204425,4.69472566 9.65830973,4.50093363 9.41919027,4.50093363 Z" id="Shape"></path>
                    <path d="M8.40933186,7.80483186 L7.79361504,7.18917257 C7.62444248,7.02011504 7.35040708,7.02011504 7.18134956,7.18917257 C7.01229204,7.35823009 7.01229204,7.63232301 7.18134956,7.80132301 L7.79706637,8.41703982 C7.88162389,8.50153982 7.9924115,8.54381858 8.10319912,8.54381858 C8.21398673,8.54381858 8.32477434,8.50159735 8.40933186,8.41703982 C8.57838938,8.2479823 8.57838938,7.97388938 8.40933186,7.80483186 Z" id="Shape"></path>
                    <path d="M4.92602212,8.12338938 C4.68690265,8.12338938 4.49316814,8.31718142 4.49316814,8.55624336 L4.49316814,9.42701327 C4.49316814,9.66607522 4.68690265,9.85986726 4.92602212,9.85986726 C5.16514159,9.85986726 5.35887611,9.66607522 5.35887611,9.42701327 L5.35887611,8.55624336 C5.35887611,8.31718142 5.16514159,8.12338938 4.92602212,8.12338938 Z" id="Shape"></path>
                    <path d="M2.67075221,7.18917257 C2.50169469,7.02011504 2.22765929,7.02011504 2.05854425,7.18917257 L1.44282743,7.80483186 C1.27371239,7.97388938 1.27371239,8.2479823 1.44276991,8.41703982 C1.52732743,8.50153982 1.63805752,8.54381858 1.74890265,8.54381858 C1.85963274,8.54381858 1.97047788,8.50159735 2.0550354,8.41703982 L2.67075221,7.80132301 C2.83975221,7.63226549 2.83975221,7.35817257 2.67075221,7.18917257 Z" id="Shape"></path>
                    <path d="M1.30356637,4.50093363 L0.432853982,4.50093363 C0.193734513,4.50093363 0,4.69472566 0,4.93378761 C0,5.17284956 0.193734513,5.36664159 0.432853982,5.36664159 L1.30356637,5.36664159 C1.54268584,5.36664159 1.73642035,5.17284956 1.73642035,4.93378761 C1.73642035,4.69472566 1.54268584,4.50093363 1.30356637,4.50093363 Z" id="Shape"></path>
                    <path d="M2.67075221,2.06625221 L2.05497788,1.4505354 C1.88586283,1.28147788 1.61182743,1.28147788 1.44276991,1.4505354 C1.27371239,1.61959292 1.27371239,1.89368584 1.44276991,2.06274336 L2.05848673,2.67846018 C2.14304425,2.76296018 2.25383186,2.80518142 2.36461947,2.80518142 C2.47534956,2.80518142 2.58619469,2.76296018 2.67075221,2.67840265 C2.83975221,2.50934513 2.83975221,2.23525221 2.67075221,2.06625221 Z" id="Shape"></path>
                    <path d="M29.2417168,24.5723009 C28.4872566,24.0605841 27.6124602,23.8288274 26.748708,23.8755354 C25.9513938,22.7772655 24.4473628,21.8357434 22.3751858,21.1417965 C21.0889336,20.7110708 19.653469,20.4001637 18.1272345,20.2155752 L21.2285398,12.4345 C21.6964823,12.7724425 22.1048894,13.1738319 22.4386903,13.6279115 C22.5490177,13.7780442 22.7192257,13.8630044 22.9069779,13.8172743 C23.9312743,13.6315354 25.0174646,13.7505487 26.0492965,14.1617743 C27.0888938,14.5761062 27.9642655,15.2435929 28.5807301,16.0920442 C28.6633894,16.2057655 28.7943673,16.2704204 28.9308673,16.2704204 C28.9654956,16.2704204 29.000469,16.2662788 29.0350973,16.2576504 C29.2061681,16.2152566 29.3344425,16.073292 29.3594071,15.8988274 C29.3757434,15.7843009 29.7505,13.0595354 28.8576416,10.0911062 C28.7888451,9.86216814 28.5469071,9.73245575 28.3184867,9.80125221 C28.0895487,9.87010619 27.9597788,10.1115265 28.0286903,10.3404071 C28.5498407,12.0732035 28.6067301,13.7486504 28.5747478,14.7707035 C27.9569602,14.1728186 27.2092301,13.6920487 26.3698097,13.3575 C25.4155177,12.9771637 24.4171062,12.815469 23.4452124,12.8800664 C23.4525752,12.8576903 23.4592478,12.8358319 23.4664956,12.8135708 C23.8047257,11.7802434 24.0569602,10.7153363 24.1810354,9.63432301 C24.2945265,8.64511504 24.3051106,7.64589823 24.1805752,6.65720796 C24.1084425,6.08463274 23.9856903,5.51832743 23.8095575,4.96864602 C23.808292,4.96467699 23.8070265,4.96042035 23.8057035,4.95645133 C25.3589159,5.79794248 26.5528451,7.03788938 27.3632168,8.65420354 C27.470323,8.86789823 27.7304381,8.95423894 27.9441327,8.84713274 C28.1578274,8.74002655 28.2441681,8.4799115 28.1370619,8.26615929 C27.0628938,6.12369027 25.3774956,4.58261504 23.1262522,3.68521239 C20.0299513,2.45130531 16.8073319,2.85718142 13.807323,4.85900885 C11.5678717,6.35326106 10.2565398,8.18603097 10.2017788,8.26328319 C10.0999071,8.4070885 10.0954779,8.59829204 10.1904469,8.74669912 C10.2854159,8.89510619 10.4606283,8.97120796 10.6341726,8.93893805 C11.6653717,8.74721681 12.7599027,8.86484956 13.7994425,9.27918142 C14.8239115,9.68753097 15.6889867,10.3416726 16.3040133,11.1726372 C16.4236593,11.3342743 16.5981814,11.4336726 16.8030177,11.3728142 C17.3527566,11.2753717 17.9199823,11.265708 18.4869204,11.3415221 L15.0285177,20.0190221 C14.9412566,20.0182743 14.8542832,20.0167212 14.7667345,20.0167212 C12.7716372,20.0167212 10.8649513,20.2154602 9.09965487,20.6074159 C8.86628761,20.6592434 8.7190885,20.8904248 8.77097345,21.1238496 C8.82280088,21.3572168 9.05357965,21.5044735 9.28734956,21.4525885 C10.9671106,21.079615 12.8618894,20.8824867 14.7667345,20.8824867 C15.6696018,20.8824867 16.5730442,20.9253982 17.4715398,21.0146726 C17.4747611,21.0149602 17.4779248,21.0149027 17.4812035,21.0151327 C19.1520487,21.1807965 20.7179735,21.4996416 22.1001726,21.9625796 C23.7502522,22.5151947 25.0241947,23.2434248 25.7718673,24.0505177 C25.3946372,24.1676903 25.0297743,24.3414071 24.6894159,24.5721858 C23.6019602,25.309677 22.1966372,25.309677 21.1091239,24.5721858 C19.7263496,23.6344027 17.9394823,23.6344602 16.5568805,24.5721858 C15.4694248,25.309677 14.0641018,25.309677 12.9765885,24.5721858 C11.5938717,23.6344027 9.80700442,23.6344602 8.42434513,24.5721858 C7.33688938,25.309677 5.93156637,25.309677 4.8440531,24.5721858 C4.50375221,24.3414071 4.13888938,24.1676327 3.76165929,24.0505177 C4.50835398,23.2445752 5.77999558,22.5171504 7.42679646,21.964823 C7.65343363,21.8888363 7.7755531,21.6434469 7.69956637,21.4167522 C7.62357965,21.190115 7.37830531,21.0679381 7.1515531,21.1439823 C5.083,21.8376991 3.58126991,22.7784735 2.78487611,23.8754204 C1.92106637,23.8287124 1.04632743,24.0605841 0.291867257,24.5721858 C0.0939911504,24.706385 0.0423938053,24.975531 0.17659292,25.1734071 C0.310734513,25.3712832 0.579707965,25.4229381 0.777814159,25.2887389 C1.42033628,24.8530088 2.17387611,24.6748628 2.90722566,24.7540708 C2.9335708,24.7597655 2.96014602,24.7633894 2.98683628,24.7640221 C3.46703097,24.8282168 3.93652655,25.0027965 4.35822124,25.2887965 C5.74082301,26.2264646 7.52763274,26.2265796 8.91040708,25.2887965 C9.99797788,24.5512478 11.4033584,24.5513053 12.4907566,25.2887965 C13.8734159,26.2264646 15.6602257,26.2265796 17.0429425,25.2887965 C18.1304558,24.5512478 19.5358363,24.5513053 20.623292,25.2887965 C21.3146504,25.7576593 22.1070177,25.9921195 22.8994425,25.9921195 C23.6918097,25.9921195 24.484177,25.7576593 25.1755929,25.2887965 C25.5963097,25.0034867 26.0646549,24.8290221 26.5437566,24.7644823 C26.572115,24.7639646 26.6003584,24.7601106 26.6284292,24.7538982 C27.3612035,24.675208 28.1139956,24.853354 28.7559425,25.2887389 C28.9538186,25.4229381 29.2230221,25.3713407 29.3571637,25.1734071 C29.4911327,24.9757035 29.4395354,24.7065 29.2417168,24.5723009 Z M17.3903761,10.4346858 C17.3949779,10.4249071 17.3997522,10.4152434 17.4044115,10.4054646 C17.8076416,9.56138496 18.278,8.74549115 18.8267035,7.98723451 C18.9608451,7.80189823 18.9224204,7.52216814 18.7298363,7.38279204 C18.5414513,7.24640708 18.2613761,7.29167699 18.1253363,7.47971681 C17.6847743,8.08847345 17.2933363,8.73277876 16.9420487,9.39687168 C16.8151549,9.63685398 16.6862478,9.87971239 16.5774159,10.1286106 C16.5755177,10.1326372 16.5735044,10.1366637 16.5716062,10.1406903 C15.9103319,9.42505752 15.0745929,8.85564602 14.1200133,8.47530973 C13.2803628,8.14064602 12.4064867,7.97538496 11.5467611,7.98435841 C12.1246858,7.33441593 13.074031,6.38564602 14.3098363,5.56480531 C15.5351726,4.75086726 16.799969,4.2195354 18.0689071,3.98559292 C19.2966018,3.75930088 20.5353982,3.81239381 21.764646,4.14262832 C21.7596991,4.14533186 21.7544071,4.14832301 21.7494602,4.15102655 C21.0844469,4.51600442 20.4678673,4.96634513 19.9080619,5.47765929 C19.689708,5.6770885 19.4767035,5.88209735 19.272615,6.09602212 C19.1076416,6.26904867 19.1141416,6.54308407 19.2871681,6.70805752 C19.4601947,6.87303097 19.7341726,6.86653097 19.8992035,6.69350442 C20.4540619,6.11149558 21.0805929,5.57924336 21.764531,5.14892035 C22.0797522,4.95052655 22.4087788,4.77128761 22.7523584,4.62679204 C22.8426106,4.83151327 22.9600133,5.13459735 23.0702832,5.53155752 C23.5922389,7.41189823 23.4511947,9.44104867 22.9936637,11.3187434 C22.8952434,11.7225487 22.7815221,12.1228451 22.6525575,12.5179071 C22.6512345,12.5219912 22.6497965,12.5261903 22.6484735,12.5303319 C22.0594469,11.9071372 21.3361062,11.3982965 20.5171637,11.0320531 C20.5059469,11.0270487 20.4947301,11.0220442 20.4835133,11.0170973 C19.5149558,10.5895929 18.4490708,10.3762434 17.3903761,10.4346858 Z M17.2322478,20.1223894 C17.0315531,20.1050177 16.8294779,20.090177 16.6262522,20.0770619 C16.4016283,20.061646 16.1766018,20.0503142 15.9516327,20.0411681 L19.3465885,11.5233496 C19.5520575,11.5821947 19.7543053,11.6521991 19.952354,11.7323274 C19.9845088,11.745385 20.4805221,11.9725973 20.4796018,11.9748982 L17.2322478,20.1223894 Z" id="Shape"></path>
                </g>
            </g>
        </g>
    </g>
</svg>